<svg width="64" height="64" viewBox="0 0 64 64" fill="none" xmlns="http://www.w3.org/2000/svg">
  <!-- xkcd-style calendar day 1 favicon -->

  <!-- Calendar body - wobbly rectangle -->
  <path d="M8 16 Q7 16 7 17 L6 54 Q6 57 9 57 L55 56 Q58 56 58 53 L57 17 Q57 15 55 15 L9 16 Z"
        fill="white" stroke="black" stroke-width="2.5" stroke-linecap="round" stroke-linejoin="round"/>

  <!-- Calendar header bar - wobbly -->
  <path d="M7 16 Q6 15 7 14 L8 10 Q9 8 11 8 L53 7 Q56 7 56 10 L57 15 Q57 16 56 16"
        fill="black" stroke="black" stroke-width="2" stroke-linecap="round"/>

  <!-- Binding rings - hand drawn circles -->
  <ellipse cx="18" cy="8" rx="3.5" ry="4" fill="none" stroke="black" stroke-width="2.5"/>
  <ellipse cx="32" cy="7" rx="3.5" ry="4" fill="none" stroke="black" stroke-width="2.5"/>
  <ellipse cx="46" cy="8" rx="3.5" ry="4" fill="none" stroke="black" stroke-width="2.5"/>

  <!-- Number "1" - simple wobbly xkcd style -->
  <!-- Serif/flag at top -->
  <path d="M24 26 Q26 24 28 25 L32 23" stroke="black" stroke-width="3" stroke-linecap="round" stroke-linejoin="round" fill="none"/>
  <!-- Main stem -->
  <path d="M31 24 Q32 35 31 48 Q31 50 32 51" stroke="black" stroke-width="3.5" stroke-linecap="round" fill="none"/>
  <!-- Bottom serif -->
  <path d="M24 50 Q28 51 32 50 Q36 51 40 50" stroke="black" stroke-width="3" stroke-linecap="round" fill="none"/>
</svg>